<svg aria-hidden="true" style="position: absolute; width: 0; height: 0; overflow: hidden;" version="1.1" xmlns="http://www.w3.org/2000/svg" xmlns:xlink="http://www.w3.org/1999/xlink">
<defs>
<symbol id="icon-logo" viewBox="0 0 44 32">
<path d="M28.028 8.046c1.079 1.070 0.917 1.182 1.119 1.179 0.421-0.005 0.842 0.014 1.263 0.040 0.031 0.002 0.083-0.018 0.086 0.030 0.004 0.059 0.084 0.039-1.236 0.036-0.029-0-0.067-0.015-0.085 0.014-0.021 0.035 0.021 0.052 0.037 0.075 0.352 0.532 0.336 0.527 0.406 0.536 0.649 0.078 1.294 0.178 1.93 0.329 0.713 0.169 0.847 0.442 0.906 0.813 0.358 2.261 0.149 2.766 0.248 2.797s0.71-1.692 3.324-2.257c1.402-0.303 3.038-0.065 4.465 0.847 2.366 1.513 3.612 4.146 2.948 7.773-0.569 3.114-2.903 5.215-5.775 6.086-2.401 0.729-5.676 0.755-7.953-0.576-0.226-0.132-0.031 0.158-1.424 1.624-3.869 4.069-9.279 4.283-10.466 4.501-0.932 0.171-4.417 0.166-6.46-0.228-4.442-0.857-8.205-3.923-9.935-8.008-1.589-3.752-1.644-8.079-1.15-12.085 0.111-0.9 3.921-1.22 4.912-1.202 0.060 0.001 0.087-0.022 0.079-0.081-0.081-0.59 0.055-0.698-0.095-0.704-2.968-0.113-4.063 0.212-4.071 0.076-0.004-0.057 0.057-0.047 0.097-0.051 1.491-0.161 2.124-0.139 2.23-0.141 0.091-0.002 0.182-0.017 0.273-0.016 0.462 0.004 0.925 0.006 1.386 0.044 0.117 0.010 0.168-0.011 0.161-0.148-0.041-0.792 0.157-0.974-0.047-1.002-3.318-0.456-3.272-0.321-3.273-0.42-0-0.063-0.060-0.056 1.136 0.046 2.183 0.186 2.246 0.439 2.271 0.182 0.023-0.24 0.076-0.474 0.131-0.708 0.303-1.275 0.738-1.593 0.644-1.697-0.429-0.475-1.021-1.96-0.908-3.511 0.079-1.089 0.689-1.707 1.648-1.807 0.688-0.072 2.664-0.078 3.869 0.5 0.114 0.054 2.297-1.098 5.407-0.91 3.031 0.183 4.836 1.345 4.925 1.349 0.207 0.010 0.051-0.201 1.694-0.498 0.962-0.173 2.109-0.257 2.851 0.387 0.756 0.657 0.516 1.538 0.173 2.448-0.623 1.653-0.973 1.76-0.86 1.989 0.211 0.426 0.155 0.462 0.312 0.519 0.928 0.339 1.738 0.871 2.475 1.522 0.011 0.010 0.024 0.019 0.034 0.031 0.221 0.293 0.44 0.142 1.216 0.166 0.602 0.018 1.003 0.061 1.005 0.061 0.031 0.002 0.071-0.005 0.069 0.038-0.005 0.099-0.817-0.052-1.991 0.013zM15.64 31.696c3.068 0.058 6.887-0.644 9.757-2.374 3.070-1.851 4.673-4.337 5.79-7.663 0.507-1.512 0.902-3.336 1.071-4.974 0.262-2.542 0.067-4.297 0.030-5.26-0.002-0.065-0.019-0.098-0.088-0.042-0.477 0.388-1.23 0.62-1.835 0.788-0.107 0.030-0.101 0.081-0.093 0.155 0.184 1.815-0.665 1.786-0.755 1.922-0.327 0.488-0.61 0.154-0.759 0.22-0.878 0.386-1.895-0.124-2.662-0.717-0.425-0.329-0.881-0.612-1.323-0.918-0.090-0.062-0.147-0.057-0.216 0.044-0.471 0.679-1.489 1.513-2.992 2.040-1.469 0.515-3.028 0.591-4.483 0.576-1.922-0.019-1.897-0.052-1.814 0.115 0.587 1.177 0.681 4.043-0.666 3.917-0.036-0.003-0.063 0.010-0.091 0.035-0.18 0.164-0.399 0.24-0.631 0.184-0.491-0.117-0.329 0.228-1.213-0.048-0.639-0.199-1.196-0.546-1.686-1-0.442-0.41-0.761-0.91-1.053-1.431-0.131-0.235-1.024-1.907-1.506-2.117-1.005-0.436-1.848-1.069-2.412-2.032-0.026-0.045-0.057-0.074-0.115-0.079-1.177-0.091-2.842-0.186-4.098-0.578-0.457-0.143-0.935-0.231-1.347-0.497-0.117-0.075-0.045 0.066-0.093 0.763-0.291 4.227 0.020 8.999 2.265 12.595 1.91 3.059 5.093 5.293 8.654 6.036 1.831 0.382 3.404 0.321 4.363 0.339zM20.983 9.38c0-0.049 0.035-0.053 0.055-0.060 0.719-0.251 1.45-0.462 2.187-0.653 2.033-0.527 2.17-0.343 2.122-0.554-0.185-0.815-0.138-0.825-0.691-2.453-0.074-0.218-0.006-0.222 0.381-1.021 0.485-1.001 1.12-2.245 0.576-2.951-0.638-0.829-1.949-0.654-2.981-0.463-0.798 0.148-1.429 0.464-1.659 0.381-0.647-0.233-2.595-1.199-5.084-1.267-1.704-0.046-3.24 0.237-4.609 0.767-1.021 0.396-0.427-0.045-2.751-0.361-0.75-0.102-1.785-0.256-2.404 0.17-0.679 0.468-0.693 1.358-0.609 2.182 0.124 1.221 0.394 1.606 0.821 2.465 0.14 0.282-0.428 0.705-0.748 2.658-0.008 0.051-0.020 0.108 0.061 0.123 1.559 0.271 3.071 0.678 4.623 1.214-0.153 0.113-1.19-0.499-4.624-1.129-0.102-0.019-0.105-0.049-0.15 0.882-0.021 0.447-0.104-0.11 4.967 0.919 0.028 0.006 0.073-0.006 0.067 0.039-0.013 0.094-0.713-0.169-3.173-0.474-0.582-0.072-1.167-0.12-1.75-0.182-0.096-0.010-0.117 0.024-0.113 0.111 0.062 1.17 0.027 1.159 0.18 1.146 1.141-0.099 2.374-0.139 2.832-0.134 1.888 0.019 1.829-0.037 1.828 0.029-0.001 0.046-0.050 0.037-0.176 0.037-1.129-0.004-3.109 0.056-4.407 0.158-0.12 0.009-0.18 0.003-0.151 0.165 0.244 1.348 0.648 2.343 1.93 3.233 1.086 0.754 2.318 1.040 3.613 1.114 0.711 0.041 1.941-0.056 2.3-0.125 2.741-0.523 5.682 0.316 8.628-0.934 1.745-0.74 2.848-1.95 3.256-3.817 0.013-0.058 0.007-0.093-0.069-0.093-0.536-0.001-0.695-0.125-4.258 0.046-0.178 0.008-0.437-0.184 3.199-0.18 1.086 0.001 1.157 0.111 1.173-0.010 0.112-0.856 0.093-0.855 0.003-0.846-4.147 0.409-4.307 0.559-4.318 0.455-0.004-0.037 0.042-0.034 0.072-0.039 0.959-0.151 3.151-0.402 3.222-0.41 1.068-0.118 1.096-0.061 1.098-0.168 0.005-0.329-0.015-0.657-0.068-0.982-0.010-0.060-0.031-0.072-0.091-0.062-2.771 0.49-4.058 1.072-4.307 1.073zM34.326 24.431c0.707-0.041 1.337-0.041 2.322-0.364 1.733-0.568 3.388-1.922 4.038-3.805 1.094-3.17-0.966-6.526-3.915-5.908-2.361 0.494-2.067 2.572-3.188 3.302-0.323 0.21-0.67 0.292-1.037 0.153-0.223-0.084-0.082-0.066-0.403 1.434-0.144 0.674-0.43 1.782-0.736 2.687-0.594 1.759-0.807 1.765-0.623 1.824 1.669 0.54 2.104 0.594 3.542 0.678zM43.047 16.105c-0.699-2.19-2.761-4.054-5.429-4.26-1.942-0.15-3.949 0.741-4.869 2.469-0.131 0.247-0.004 0.646-0.136 1.881-0.136 1.275-0.196 1.264-0.073 1.334 0.349 0.196 0.722 0.044 1.015-0.213 0.497-0.437 0.657-1.248 1.051-1.814 0.934-1.343 2.508-1.738 3.683-1.393 2.899 0.849 3.904 4.835 1.91 7.671-2.108 2.997-6.297 3.516-9.496 2.189-0.219-0.091-0.043 0.128-0.928 1.493-0.082 0.127 0.044 0.121 0.521 0.325 4.338 1.85 10.417 0.415 12.341-3.83 0.72-1.588 0.959-4.126 0.409-5.849zM25.821 9.469c-0.077 0.005-0.079 0.045-0.084 0.105-0.074 0.89-0.131 0.858-0 0.867 0.801 0.055 2.773 0.204 3.803 0.479 0.049 0.013 0.134 0.002 0.122 0.066-0.016 0.089-0.186-0.017-0.86-0.107-2.032-0.273-1.96-0.223-3.047-0.349-0.103-0.012-0.138 0.027-0.156 0.121-0.128 0.65-0.368 1.256-0.737 1.807-0.063 0.094-0.019 0.119 0.045 0.145 1.002 0.4 1.921 1.813 3.47 1.725 0.503-0.029 0.413-0.319 0.545-0.289 0.138 0.030-0.029 0.22 0.158 0.223 0.231 0.004 0.344-0.154 0.277-0.393-0.014-0.051-0.066-0.118 0.010-0.152 0.073-0.033 0.1 0.050 0.141 0.090 0.068 0.066 0.007 0.257 0.2 0.089 0.35-0.304 0.398-0.723 0.4-1.141 0.002-0.452-0.189-2.021-1.135-3.296-0.076-0.103-0.156-0.138-0.277-0.133-3.209 0.135 0.349-0.045-2.873 0.145zM9.062 15.395c0.773 0.823 1.088 1.891 1.805 2.722 0.575 0.666 1.273 1.159 2.128 1.392 0.264 0.072 0.551 0.061 0.725-0.229 0.030-0.051 0.080-0.044 0.123-0.026 0.157 0.065-0.297 0.39 0.391 0.227 0.194-0.046 0.307-0.26 0.23-0.443-0.018-0.042-0.034-0.081 0.016-0.109s0.087-0.013 0.116 0.034c0.147 0.239 0.013 0.378 0.148 0.32 0.859-0.371 0.698-1.523 0.562-2.494-0.055-0.397-0.187-0.776-0.282-1.164-0.023-0.094-0.066-0.113-0.15-0.103-3.048 0.385-4.193 0.299-5.812-0.127zM5.315 10.791c-0.005-0.213 0.039-0.184-0.641-0.157-1.979 0.079-3.612 0.534-4.009 0.809-0.183 0.127-0.166 0.306 0.035 0.397 1.727 0.78 3.24 0.801 5.065 0.976 0.232 0.022-0.23-0.293-0.407-1.678-0.013-0.098-0.039-0.148-0.156-0.132-0.34 0.046-0.683 0.075-1.023 0.12-2.297 0.3-2.395 0.429-2.411 0.33-0.005-0.032 0.013-0.048 0.045-0.053 0.073-0.011 0.309-0.099 1.733-0.303 1.732-0.248 1.817-0.126 1.769-0.309zM28.768 9.22c-0.032-0.081-0.552-0.741-0.971-1.118-0.092-0.082-0.498-0.029-1.142 0.033-1.056 0.102-0.988 0.111-0.974 0.208 0.152 1.060-0.072 1.062 0.226 1.034 1.021-0.094 1.499-0.103 2.861-0.157zM29.822 10.227c-0.296-0.045 0.195 0.255 0.397 1.659 0.015 0.107 0.054 0.104 0.133 0.079 0.722-0.222 2.243-0.708 1.683-1.205-0.227-0.202-0.538-0.278-2.212-0.533zM25.723 8.163c0.303-0.026 0.284-0.079 1.796-0.188 0.028-0.002 0.069 0.018 0.082-0.019 0.051-0.149-1.717-0.988-2.221-1.287-0.021-0.013-0.048-0.039-0.070-0.015-0.023 0.026 0.001 0.057 0.011 0.086 0.399 1.215 0.26 1.447 0.403 1.423z"></path>
<path d="M15.374 8.749c-0.052 0.016-0.060 0.038-0.060 0.088-0.002 0.356 0.028 0.712-0.017 1.067-0.002 0.017 0.002 0.041 0.014 0.052 0.296 0.272 0.423 0.645 0.59 0.994 0.056 0.117 0.085 0.245 0.102 0.374 0.007 0.050 0.038 0.125-0.043 0.146-0.145 0.037-0.108-0.314-0.594-1.142-0.093-0.159-0.208-0.164-0.321-0.017-0.162 0.211-0.426 1.046-0.485 1.254-0.021 0.076-0.040 0.163-0.146 0.129-0.093-0.030-0.090-0.103-0.065-0.188 0.098-0.323 0.437-1.32 0.712-1.518 0.079-0.057-0.031-0.278 0.052-1.154 0.015-0.154-0.898-0.368-0.784-0.852 0.123-0.524 0.903-0.514 1.416-0.373 0.641 0.176 0.304 0.935-0.369 1.141zM15.078 7.744c-0.229-0.007-0.462 0.044-0.504 0.269-0.036 0.192 0.117 0.234 0.602 0.508 0.026 0.015 0.048 0.015 0.074-0.003 0.144-0.101 0.293-0.195 0.432-0.301 0.38-0.29-0.162-0.486-0.605-0.473z"></path>
<path d="M10.789 8.434c-0.556 0.002-1.059-0.488-1.082-1.055-0.009-0.23-0.014-0.316 0.11-0.326 0.076-0.006 0.125 0.017 0.141 0.097 0.095 0.491 0.316 0.933 0.817 0.965 0.521 0.033 0.81-0.525 0.91-1.014 0.011-0.056 0.024-0.113 0.094-0.105 0.064 0.007 0.065 0.064 0.065 0.116 0.011 0.839-0.515 1.32-1.055 1.322z"></path>
<path d="M18.946 7.148c0.009-0.115-0.003-0.207 0.105-0.229 0.217-0.044 0.163 0.155 0.416 0.693 0.254 0.54 0.883 0.392 1.146-0.058 0.218-0.374 0.193-0.68 0.32-0.682 0.080-0.002 0.088 0.062 0.1 0.116 0.169 0.749-1.047 1.896-1.857 0.816-0.151-0.201-0.22-0.406-0.23-0.655z"></path>
<path d="M7.992 1.515c0.389 0.067 1.084 0.372 1.28 0.661 0.086 0.127-0.061 0.315-0.345 0.082-0.673-0.553-1.040-0.494-1.010-0.675 0.007-0.041 0.032-0.069 0.075-0.068z"></path>
<path d="M22.137 2.582c0.273-0.204 0.563-0.376 0.89-0.48 0.046-0.015 0.102-0.044 0.13 0.017 0.066 0.143-0.288 0.16-0.903 0.742-0.302 0.286-0.498 0.006-0.117-0.279z"></path>
</symbol>
<symbol id="icon-location" viewBox="0 0 32 32">
<path d="M16 0c-5.523 0-10 4.477-10 10 0 10 10 22 10 22s10-12 10-22c0-5.523-4.477-10-10-10zM16 16.125c-3.383 0-6.125-2.742-6.125-6.125s2.742-6.125 6.125-6.125 6.125 2.742 6.125 6.125-2.742 6.125-6.125 6.125zM12.125 10c0-2.14 1.735-3.875 3.875-3.875s3.875 1.735 3.875 3.875c0 2.14-1.735 3.875-3.875 3.875s-3.875-1.735-3.875-3.875z"></path>
</symbol>
<symbol id="icon-facebook" viewBox="0 0 32 32">
<path d="M19 6h5v-6h-5c-3.86 0-7 3.14-7 7v3h-4v6h4v16h6v-16h5l1-6h-6v-3c0-0.542 0.458-1 1-1z"></path>
</symbol>
<symbol id="icon-instagram" viewBox="0 0 32 32">
<path d="M16 2.881c4.275 0 4.781 0.019 6.462 0.094 1.563 0.069 2.406 0.331 2.969 0.55 0.744 0.288 1.281 0.638 1.837 1.194 0.563 0.563 0.906 1.094 1.2 1.838 0.219 0.563 0.481 1.412 0.55 2.969 0.075 1.688 0.094 2.194 0.094 6.463s-0.019 4.781-0.094 6.463c-0.069 1.563-0.331 2.406-0.55 2.969-0.288 0.744-0.637 1.281-1.194 1.837-0.563 0.563-1.094 0.906-1.837 1.2-0.563 0.219-1.413 0.481-2.969 0.55-1.688 0.075-2.194 0.094-6.463 0.094s-4.781-0.019-6.463-0.094c-1.563-0.069-2.406-0.331-2.969-0.55-0.744-0.288-1.281-0.637-1.838-1.194-0.563-0.563-0.906-1.094-1.2-1.837-0.219-0.563-0.481-1.413-0.55-2.969-0.075-1.688-0.094-2.194-0.094-6.463s0.019-4.781 0.094-6.463c0.069-1.563 0.331-2.406 0.55-2.969 0.288-0.744 0.638-1.281 1.194-1.838 0.563-0.563 1.094-0.906 1.838-1.2 0.563-0.219 1.412-0.481 2.969-0.55 1.681-0.075 2.188-0.094 6.463-0.094zM16 0c-4.344 0-4.887 0.019-6.594 0.094-1.7 0.075-2.869 0.35-3.881 0.744-1.056 0.412-1.95 0.956-2.837 1.85-0.894 0.888-1.438 1.781-1.85 2.831-0.394 1.019-0.669 2.181-0.744 3.881-0.075 1.713-0.094 2.256-0.094 6.6s0.019 4.887 0.094 6.594c0.075 1.7 0.35 2.869 0.744 3.881 0.413 1.056 0.956 1.95 1.85 2.837 0.887 0.887 1.781 1.438 2.831 1.844 1.019 0.394 2.181 0.669 3.881 0.744 1.706 0.075 2.25 0.094 6.594 0.094s4.888-0.019 6.594-0.094c1.7-0.075 2.869-0.35 3.881-0.744 1.050-0.406 1.944-0.956 2.831-1.844s1.438-1.781 1.844-2.831c0.394-1.019 0.669-2.181 0.744-3.881 0.075-1.706 0.094-2.25 0.094-6.594s-0.019-4.887-0.094-6.594c-0.075-1.7-0.35-2.869-0.744-3.881-0.394-1.063-0.938-1.956-1.831-2.844-0.887-0.887-1.781-1.438-2.831-1.844-1.019-0.394-2.181-0.669-3.881-0.744-1.712-0.081-2.256-0.1-6.6-0.1v0z"></path>
<path d="M16 7.781c-4.537 0-8.219 3.681-8.219 8.219s3.681 8.219 8.219 8.219 8.219-3.681 8.219-8.219c0-4.537-3.681-8.219-8.219-8.219zM16 21.331c-2.944 0-5.331-2.387-5.331-5.331s2.387-5.331 5.331-5.331c2.944 0 5.331 2.387 5.331 5.331s-2.387 5.331-5.331 5.331z"></path>
<path d="M26.462 7.456c0 1.060-0.859 1.919-1.919 1.919s-1.919-0.859-1.919-1.919c0-1.060 0.859-1.919 1.919-1.919s1.919 0.859 1.919 1.919z"></path>
</symbol>
<symbol id="icon-whatsapp" viewBox="0 0 32 32">
<path d="M27.281 4.65c-2.994-3-6.975-4.65-11.219-4.65-8.738 0-15.85 7.112-15.85 15.856 0 2.794 0.731 5.525 2.119 7.925l-2.25 8.219 8.406-2.206c2.319 1.262 4.925 1.931 7.575 1.931h0.006c0 0 0 0 0 0 8.738 0 15.856-7.113 15.856-15.856 0-4.238-1.65-8.219-4.644-11.219zM16.069 29.050v0c-2.369 0-4.688-0.637-6.713-1.837l-0.481-0.288-4.987 1.306 1.331-4.863-0.313-0.5c-1.325-2.094-2.019-4.519-2.019-7.012 0-7.269 5.912-13.181 13.188-13.181 3.519 0 6.831 1.375 9.319 3.862 2.488 2.494 3.856 5.8 3.856 9.325-0.006 7.275-5.919 13.188-13.181 13.188zM23.294 19.175c-0.394-0.2-2.344-1.156-2.706-1.288s-0.625-0.2-0.894 0.2c-0.262 0.394-1.025 1.288-1.256 1.556-0.231 0.262-0.462 0.3-0.856 0.1s-1.675-0.619-3.188-1.969c-1.175-1.050-1.975-2.35-2.206-2.744s-0.025-0.613 0.175-0.806c0.181-0.175 0.394-0.463 0.594-0.694s0.262-0.394 0.394-0.662c0.131-0.262 0.069-0.494-0.031-0.694s-0.894-2.15-1.219-2.944c-0.319-0.775-0.65-0.669-0.894-0.681-0.231-0.012-0.494-0.012-0.756-0.012s-0.694 0.1-1.056 0.494c-0.363 0.394-1.387 1.356-1.387 3.306s1.419 3.831 1.619 4.1c0.2 0.262 2.794 4.269 6.769 5.981 0.944 0.406 1.681 0.65 2.256 0.837 0.95 0.3 1.813 0.256 2.494 0.156 0.762-0.113 2.344-0.956 2.675-1.881s0.331-1.719 0.231-1.881c-0.094-0.175-0.356-0.275-0.756-0.475z"></path>
</symbol>
</defs>
</svg>
